<?xml version="1.0" encoding="UTF-8" standalone="no"?><!DOCTYPE svg PUBLIC "-//W3C//DTD SVG 1.1//EN" "http://www.w3.org/Graphics/SVG/1.1/DTD/svg11.dtd"><svg width="100%" height="100%" viewBox="0 0 600 600" version="1.1" xmlns="http://www.w3.org/2000/svg" xmlns:xlink="http://www.w3.org/1999/xlink" xml:space="preserve" xmlns:serif="http://www.serif.com/" style="fill-rule:evenodd;clip-rule:evenodd;stroke-linejoin:round;stroke-miterlimit:1.41421;"><path id="Plus-Icon" serif:id="Plus Icon" d="M410.783,316.618l-94.165,0l0,94.164c0,9.18 -7.44,16.618 -16.618,16.618c-9.177,0 -16.617,-7.438 -16.617,-16.618l0,-94.164l-94.166,0c-9.176,0 -16.617,-7.441 -16.617,-16.618c0,-9.177 7.441,-16.618 16.617,-16.618l94.166,0l0,-94.161c0,-9.183 7.44,-16.621 16.617,-16.621c9.178,0 16.618,7.438 16.618,16.621l0,94.161l94.165,0c9.177,0 16.617,7.441 16.617,16.618c0,9.177 -7.44,16.618 -16.617,16.618Z" style="fill:#fff;"/></svg>